# xmcd
# 
# Track frame offsets:
#     150
#     36342
#     77577
#     119490
# 
# Disc length: 2013
# 
# Revision: 1
# Processed by: cddbd v1.5.2PL0 Copyright (c) Steve Scherf et al.
# Submitted via: BonkEnc v1.0.8
# 
DISCID=2c07db04
DTITLE=Fuse One - Silk
DYEAR=1981
DGENRE=Fusion
TTITLE0=Silk
TTITLE1=In Celebration of the Human Spirit
TTITLE2=Sunwalk
TTITLE3=Hot Fire
EXTD=
EXTT0=
EXTT1=
EXTT2=
EXTT3=
PLAYORDER=
